<svg width="684" height="531" viewBox="0 0 684 531" fill="none" xmlns="http://www.w3.org/2000/svg">
<path d="M342.913 320.463C424.821 312.658 498.521 300.386 551.474 286.838C577.937 280.068 599.303 272.959 613.938 265.892C621.245 262.363 626.983 258.794 630.843 255.208C634.668 251.655 636.96 247.784 636.571 243.7C636.182 239.617 633.2 236.249 628.773 233.482C624.305 230.689 617.997 228.268 610.154 226.183C594.448 222.007 572.124 219.06 544.859 217.41C490.3 214.106 415.608 215.973 333.7 223.778C251.793 231.582 178.093 243.855 125.139 257.402C98.6767 264.172 77.3108 271.282 62.6754 278.349C55.368 281.878 49.6303 285.447 45.7701 289.033C41.9457 292.586 39.6536 296.457 40.0427 300.54C40.4317 304.624 43.4137 307.992 47.8402 310.759C52.3083 313.552 58.6167 315.973 66.459 318.058C82.1658 322.234 104.49 325.181 131.754 326.831C186.314 330.134 261.005 328.267 342.913 320.463Z" stroke="#0006D2" stroke-width="3.79958"/>
<path d="M349 342.116C438.765 333.563 519.606 318.856 577.796 301.894C606.82 293.434 630.65 284.287 647.205 274.831C655.456 270.118 662.365 265.069 667.193 259.62C672.015 254.178 675.494 247.46 674.767 239.837C674.041 232.213 669.356 226.273 663.594 221.84C657.823 217.401 650.085 213.747 641.093 210.677C623.049 204.517 597.921 200.036 567.821 197.209C507.474 191.542 425.311 192.367 335.546 200.92C245.781 209.473 164.94 224.18 106.75 241.142C77.7257 249.603 53.8955 258.749 37.3403 268.206C29.0896 272.919 22.1802 277.968 17.3522 283.416C12.5303 288.858 9.05186 295.577 9.77823 303.2C10.5046 310.823 15.1892 316.764 20.9521 321.197C26.7223 325.636 34.4608 329.289 43.4531 332.359C61.4963 338.519 86.6251 343 116.725 345.827C177.071 351.495 259.235 350.67 349 342.116Z" stroke="#0006D2" stroke-width="17.6844"/>
<circle cx="339.108" cy="265.28" r="255.942" fill="white" stroke="#0006D2" stroke-width="18.2816"/>
<circle cx="275.135" cy="199.087" r="118.83" fill="#00048B"/>
<circle cx="275.138" cy="199.084" r="100.549" fill="#0006D2"/>
<circle cx="430.506" cy="374.969" r="48.3158" fill="#00048B"/>
<circle cx="430.507" cy="374.969" r="45.704" fill="#0006D2"/>
</svg>
