<svg width="955" height="276" viewBox="0 0 955 276" fill="none" xmlns="http://www.w3.org/2000/svg">
<path d="M436.499 128.169H415.169V51.7974C415.169 50.3058 414.87 48.9136 414.274 47.6208C413.727 46.3281 412.956 45.2094 411.962 44.2647C411.017 43.2703 409.898 42.4996 408.606 41.9526C407.313 41.4057 405.921 41.1323 404.429 41.1323C402.937 41.1323 401.545 41.4057 400.252 41.9526C398.96 42.4996 397.816 43.2703 396.822 44.2647C395.877 45.2094 395.131 46.3281 394.584 47.6208C394.037 48.9136 393.764 50.3058 393.764 51.7974V128.169H372.359V51.7974C372.359 50.3058 372.086 48.9136 371.539 47.6208C370.992 46.3281 370.221 45.2094 369.227 44.2647C368.282 43.2703 367.163 42.4996 365.87 41.9526C364.578 41.4057 363.185 41.1323 361.694 41.1323C360.202 41.1323 358.81 41.4057 357.517 41.9526C356.224 42.4996 355.081 43.2703 354.086 44.2647C353.142 45.2094 352.396 46.3281 351.849 47.6208C351.302 48.9136 351.029 50.3058 351.029 51.7974V128.169H329.624V51.7974C329.624 47.3722 330.444 43.2205 332.085 39.3423C333.775 35.4143 336.063 32.0084 338.946 29.1246C341.88 26.1911 345.286 23.9039 349.164 22.2631C353.092 20.5726 357.269 19.7273 361.694 19.7273C365.671 19.7273 369.5 20.4483 373.179 21.8902C376.859 23.2824 380.165 25.321 383.099 28.0059C386.032 25.321 389.314 23.2824 392.943 21.8902C396.623 20.4483 400.451 19.7273 404.429 19.7273C408.854 19.7273 413.006 20.5726 416.884 22.2631C420.812 23.9039 424.218 26.1911 427.102 29.1246C430.035 32.0084 432.323 35.4143 433.963 39.3423C435.654 43.2205 436.499 47.3722 436.499 51.7974V128.169ZM540.018 85.4337C540.018 91.3505 538.9 96.9193 536.662 102.14C534.425 107.311 531.367 111.836 527.489 115.714C523.61 119.542 519.061 122.575 513.84 124.813C508.669 127.05 503.125 128.169 497.209 128.169C491.292 128.169 485.723 127.05 480.502 124.813C475.331 122.575 470.807 119.542 466.928 115.714C463.1 111.836 460.067 107.311 457.829 102.14C455.592 96.9193 454.473 91.3505 454.473 85.4337V21.219H475.804V85.4337C475.804 88.3672 476.351 91.1268 477.444 93.7123C478.588 96.2978 480.129 98.5601 482.068 100.499C484.008 102.438 486.27 103.98 488.855 105.123C491.491 106.217 494.275 106.764 497.209 106.764C500.142 106.764 502.902 106.217 505.487 105.123C508.122 103.98 510.409 102.438 512.349 100.499C514.288 98.5601 515.804 96.2978 516.898 93.7123C518.042 91.1268 518.613 88.3672 518.613 85.4337V21.219H540.018V85.4337ZM552.324 53.289C552.324 48.8639 553.17 44.7122 554.86 40.8339C556.551 36.9557 558.838 33.5747 561.722 30.6908C564.655 27.7573 568.061 25.4453 571.939 23.7547C575.817 22.0642 579.969 21.219 584.394 21.219H633.469V42.6239H584.394C582.903 42.6239 581.511 42.8973 580.218 43.4443C578.925 43.9912 577.781 44.7619 576.787 45.7563C575.842 46.701 575.097 47.8197 574.55 49.1125C574.003 50.4052 573.729 51.7974 573.729 53.289C573.729 54.7807 574.003 56.1977 574.55 57.5402C575.097 58.8329 575.842 59.9765 576.787 60.9709C577.781 61.9156 578.925 62.6615 580.218 63.2084C581.511 63.7553 582.903 64.0288 584.394 64.0288H605.799C610.224 64.0288 614.376 64.8741 618.254 66.5646C622.182 68.2054 625.588 70.4925 628.472 73.4261C631.406 76.3099 633.693 79.7158 635.334 83.6437C637.024 87.522 637.869 91.6737 637.869 96.0989C637.869 100.524 637.024 104.676 635.334 108.554C633.693 112.432 631.406 115.838 628.472 118.772C625.588 121.655 622.182 123.943 618.254 125.633C614.376 127.324 610.224 128.169 605.799 128.169H558.291V106.764H605.799C607.291 106.764 608.683 106.491 609.976 105.944C611.269 105.397 612.387 104.651 613.332 103.706C614.326 102.712 615.097 101.568 615.644 100.275C616.191 98.9827 616.464 97.5905 616.464 96.0989C616.464 94.6072 616.191 93.215 615.644 91.9223C615.097 90.6296 614.326 89.5108 613.332 88.5661C612.387 87.5717 611.269 86.801 609.976 86.2541C608.683 85.7072 607.291 85.4337 605.799 85.4337H584.394C579.969 85.4337 575.817 84.5884 571.939 82.8979C568.061 81.2074 564.655 78.9202 561.722 76.0364C558.838 73.1029 556.551 69.697 554.86 65.8188C553.17 61.8908 552.324 57.7142 552.324 53.289ZM673.37 128.169H651.965V21.219H673.37V128.169ZM778.679 117.205C773.707 121.481 768.139 124.763 761.973 127.05C755.808 129.337 749.419 130.481 742.806 130.481C737.734 130.481 732.837 129.81 728.113 128.467C723.439 127.175 719.039 125.335 714.912 122.948C710.835 120.512 707.106 117.603 703.725 114.222C700.344 110.841 697.435 107.112 694.999 103.035C692.612 98.9081 690.748 94.5078 689.405 89.834C688.112 85.1105 687.466 80.213 687.466 75.1414C687.466 70.0699 688.112 65.1724 689.405 60.4489C690.748 55.7254 692.612 51.3251 694.999 47.2479C697.435 43.1211 700.344 39.3672 703.725 35.9861C707.106 32.6051 710.835 29.7213 714.912 27.3347C719.039 24.8983 723.439 23.0338 728.113 21.741C732.837 20.3986 737.734 19.7273 742.806 19.7273C749.419 19.7273 755.808 20.8709 761.973 23.1581C768.139 25.3955 773.707 28.6771 778.679 33.0029L767.343 51.6483C764.211 48.2672 760.506 45.6817 756.23 43.8918C751.954 42.0521 747.479 41.1323 742.806 41.1323C738.082 41.1323 733.657 42.0272 729.53 43.8172C725.403 45.6071 721.799 48.0435 718.716 51.1262C715.633 54.1592 713.197 57.7639 711.407 61.9405C709.617 66.0674 708.722 70.4677 708.722 75.1414C708.722 79.8152 709.617 84.2155 711.407 88.3424C713.197 92.4195 715.633 95.9994 718.716 99.0821C721.799 102.165 725.403 104.601 729.53 106.391C733.657 108.181 738.082 109.076 742.806 109.076C747.479 109.076 751.954 108.181 756.23 106.391C760.506 104.551 764.211 101.941 767.343 98.5601L778.679 117.205ZM351.774 158.624V201.434H373.179C376.113 201.434 378.872 200.887 381.458 199.793C384.043 198.649 386.306 197.108 388.245 195.169C390.184 193.23 391.7 190.967 392.794 188.382C393.938 185.747 394.51 182.962 394.51 180.029C394.51 177.095 393.938 174.336 392.794 171.75C391.7 169.115 390.184 166.828 388.245 164.889C386.306 162.95 384.043 161.433 381.458 160.339C378.872 159.196 376.113 158.624 373.179 158.624H351.774ZM351.774 244.169H330.37V137.219H373.179C377.107 137.219 380.886 137.741 384.516 138.785C388.145 139.78 391.526 141.222 394.659 143.111C397.841 144.951 400.725 147.188 403.31 149.823C405.946 152.409 408.183 155.293 410.023 158.475C411.912 161.657 413.354 165.063 414.348 168.692C415.393 172.322 415.915 176.101 415.915 180.029C415.915 185.896 414.796 191.44 412.558 196.66C410.321 201.831 407.263 206.356 403.385 210.234C399.507 214.113 394.957 217.17 389.736 219.408C384.565 221.645 379.046 222.764 373.179 222.764H351.774V244.169ZM503.399 244.169H428.519V137.219H449.924V222.764H503.399V244.169ZM577.533 201.434V180.029C577.533 177.095 576.961 174.336 575.817 171.75C574.724 169.115 573.207 166.828 571.268 164.889C569.329 162.95 567.042 161.433 564.407 160.339C561.821 159.196 559.061 158.624 556.128 158.624C553.194 158.624 550.41 159.196 547.775 160.339C545.189 161.433 542.927 162.95 540.988 164.889C539.049 166.828 537.507 169.115 536.364 171.75C535.27 174.336 534.723 177.095 534.723 180.029V201.434H577.533ZM598.938 244.169H577.533V222.764H534.723V244.169H513.393V180.029C513.393 174.112 514.511 168.568 516.749 163.397C518.986 158.176 522.019 153.627 525.848 149.749C529.726 145.87 534.251 142.813 539.422 140.575C544.642 138.338 550.211 137.219 556.128 137.219C562.045 137.219 567.589 138.338 572.76 140.575C577.98 142.813 582.53 145.87 586.408 149.749C590.286 153.627 593.344 158.176 595.582 163.397C597.819 168.568 598.938 174.112 598.938 180.029V244.169ZM703.054 244.169H680.157L638.913 173.764V244.169H617.509V137.219H640.405L681.649 207.699V137.219H703.054V244.169ZM796.281 244.169H722.967V137.219H796.281V158.624H744.372V180.029H779.5V201.434H744.372V222.764H796.281V244.169ZM856.17 244.169H834.839V158.624H802.695V137.219H888.24V158.624H856.17V244.169Z" fill="black"/>
<mask id="mask0_57_182" style="mask-type:alpha" maskUnits="userSpaceOnUse" x="0" y="19" width="303" height="227">
<rect y="19.9097" width="302.356" height="225.81" rx="20" fill="white"/>
</mask>
<g mask="url(#mask0_57_182)">
<rect y="19.9097" width="302.356" height="225.81" rx="20" fill="url(#paint0_linear_57_182)"/>
<ellipse cx="-0.956803" cy="68.3991" rx="12.4387" ry="12.1303" fill="white"/>
<ellipse cx="-0.956803" cy="111.321" rx="12.4387" ry="12.1303" fill="white"/>
<ellipse cx="-0.956803" cy="154.244" rx="12.4387" ry="12.1303" fill="white"/>
<ellipse cx="-0.956803" cy="197.167" rx="12.4387" ry="12.1303" fill="white"/>
<path d="M90.7363 177.67C88.8821 177.67 87.0696 178.22 85.5279 179.25C83.9862 180.281 82.7845 181.745 82.075 183.458C81.3654 185.171 81.1797 187.056 81.5415 188.874C81.9032 190.693 82.7961 192.363 84.1072 193.675C85.4183 194.986 87.0888 195.879 88.9074 196.24C90.7259 196.602 92.6109 196.416 94.324 195.707C96.037 194.997 97.5012 193.796 98.5314 192.254C99.5615 190.712 100.111 188.9 100.111 187.045C100.111 184.559 99.1236 182.174 97.3655 180.416C95.6073 178.658 93.2227 177.67 90.7363 177.67ZM90.7363 190.17C90.1183 190.17 89.5141 189.987 89.0002 189.644C88.4863 189.3 88.0857 188.812 87.8492 188.241C87.6127 187.67 87.5508 187.042 87.6714 186.436C87.792 185.83 88.0896 185.273 88.5266 184.836C88.9637 184.399 89.5205 184.101 90.1267 183.98C90.7329 183.86 91.3612 183.922 91.9322 184.158C92.5032 184.395 92.9913 184.795 93.3347 185.309C93.6781 185.823 93.8613 186.427 93.8613 187.045C93.8613 187.874 93.5321 188.669 92.946 189.255C92.36 189.841 91.5651 190.17 90.7363 190.17ZM90.7363 149.545C83.3195 149.545 76.0693 151.745 69.9025 155.865C63.7356 159.986 58.9291 165.843 56.0909 172.695C53.2526 179.547 52.51 187.087 53.9569 194.361C55.4038 201.636 58.9754 208.317 64.2198 213.562C69.4643 218.806 76.1462 222.378 83.4205 223.825C90.6947 225.272 98.2347 224.529 105.087 221.691C111.939 218.853 117.796 214.046 121.916 207.879C126.037 201.712 128.236 194.462 128.236 187.045C128.226 177.103 124.271 167.571 117.241 160.541C110.211 153.51 100.679 149.556 90.7363 149.545ZM90.7363 202.67C87.646 202.67 84.6251 201.754 82.0556 200.037C79.486 198.32 77.4833 195.88 76.3007 193.025C75.1181 190.17 74.8087 187.028 75.4116 183.997C76.0145 180.966 77.5026 178.182 79.6878 175.997C81.873 173.812 84.6571 172.324 87.688 171.721C90.719 171.118 93.8607 171.427 96.7158 172.61C99.5709 173.792 102.011 175.795 103.728 178.365C105.445 180.934 106.361 183.955 106.361 187.045C106.356 191.188 104.709 195.159 101.779 198.088C98.8502 201.018 94.8788 202.665 90.7363 202.67Z" fill="white"/>
<path d="M53.6254 38.9334C55.3988 37.1592 58.3767 38.4148 60.8352 38.9134C65.23 39.8047 71.8205 41.5329 71.8205 43.8806C71.8205 47.4288 71.4014 52.2075 73.9098 54.7171L77.2781 58.087C81.7864 62.5974 89.4545 60.811 87.2376 54.8315C86.543 52.9581 85.4446 51.2019 83.9421 49.6987C83.3204 49.0767 83.0079 48.2601 83.0079 47.4435C83.0079 46.627 83.3204 45.8104 83.9421 45.1884C85.1887 43.9412 87.2036 43.9412 88.4502 45.1884C90.4907 47.2298 91.801 48.4419 92.7575 49.3287C95.0211 51.4243 95.6524 52.0686 98.2189 55.9473C101.646 61.1306 104.895 63.2294 112.123 64.9391C113.012 65.1496 113.867 65.3378 114.686 65.5164C118.576 66.3681 121.933 67.1049 124.101 69.2707C135.291 80.4666 125.905 90.125 117.626 98.6447L113.758 102.667C107.742 108.998 102.545 114.466 96.07 114.545C96.019 114.545 95.9712 114.545 95.9234 114.545C92.3111 114.545 88.8615 112.852 85.3831 109.372C83.1291 107.117 81.9335 103.158 80.6072 98.2109C78.7804 91.4105 76.9153 88.9544 70.6281 85.0693C65.8522 82.1188 61.564 76.9132 61.3855 76.6931C60.3653 75.446 60.4354 73.6342 61.5481 72.47C62.6608 71.3057 64.4653 71.1558 65.7597 72.1191C73.0534 77.5625 76.0894 65.9106 69.6544 59.4748L53.6254 43.4436C52.3788 42.1965 52.3788 40.1806 53.6254 38.9334ZM97.9224 95.7357C98.5441 96.3577 99.3603 96.6703 100.176 96.6703C100.993 96.6703 101.809 96.3577 102.431 95.7357L110.401 87.7614C111.648 86.5143 111.648 84.4984 110.401 83.2512C109.154 82.004 107.139 82.004 105.893 83.2512L97.9224 91.2254C96.6758 92.4726 96.6758 94.4885 97.9224 95.7357ZM89.1133 86.9225C89.7351 87.5445 90.5512 87.8571 91.3674 87.8571C92.1836 87.8571 92.9998 87.5445 93.6215 86.9225L101.592 78.9483C102.839 77.7011 102.839 75.6852 101.592 74.438C100.345 73.1908 98.3305 73.1908 97.0839 74.438L89.1133 82.4123C87.8668 83.6595 87.8668 85.6754 89.1133 86.9225Z" fill="white"/>
<path d="M242.262 79.7149C239.878 77.5493 237.882 74.7398 237.882 71.5192C237.882 62.6293 234.556 54.1034 228.637 47.8172C222.717 41.531 214.689 37.9995 206.317 37.9995C197.946 37.9995 189.918 41.531 183.998 47.8172C178.079 54.1034 174.753 62.6293 174.753 71.5192C174.753 74.7398 172.757 77.5493 170.373 79.7149C168.663 81.2685 167.238 83.1684 166.191 85.3225C164.343 89.1231 163.783 93.4835 164.606 97.6706C165.429 101.858 167.584 105.616 170.71 108.315C173.835 111.013 177.74 112.487 181.767 112.488C185.641 112.488 188.782 109.347 188.782 105.474V78.7508C188.782 76.8139 187.211 75.2437 185.275 75.2437C183.338 75.2437 181.767 73.6735 181.767 71.7365V71.5192C181.767 64.6048 184.354 57.9736 188.958 53.0843C193.562 48.1951 199.806 45.4483 206.317 45.4483C212.828 45.4483 219.073 48.1951 223.677 53.0843C228.281 57.9736 230.867 64.6048 230.867 71.5192V71.7365C230.867 73.6735 229.297 75.2437 227.36 75.2437C225.423 75.2437 223.853 76.8139 223.853 78.7508V105.474C223.853 109.347 226.993 112.488 230.867 112.488C234.895 112.487 238.8 111.013 241.925 108.315C245.05 105.616 247.205 101.858 248.028 97.6706C248.851 93.4835 248.292 89.1231 246.444 85.3225C245.397 83.1684 243.972 81.2685 242.262 79.7149Z" fill="white"/>
<path d="M195.58 147.488C199.976 147.488 203.549 150.991 203.549 155.3L203.549 179.989C203.549 184.829 209.866 188.113 214.705 188.113C224.37 188.113 232.236 195.825 232.236 205.3C232.236 214.775 224.37 222.488 214.705 222.488C205.041 222.488 197.174 214.775 197.174 205.3L197.174 155.3C197.174 154.441 196.457 153.738 195.58 153.738L184.361 153.738C182.635 153.738 181.236 152.339 181.236 150.613C181.236 148.887 182.635 147.488 184.361 147.488L195.58 147.488Z" fill="white"/>
</g>
<path d="M609.691 229.282L610.163 251.81L632.691 252.282L610.163 252.753L609.691 275.281L609.22 252.753L586.692 252.282L609.22 251.81L609.691 229.282Z" fill="url(#paint1_linear_57_182)"/>
<path d="M316.93 0L318.6 15.5699L334.17 17.24L318.6 18.9101L316.93 34.4799L315.26 18.9101L299.69 17.24L315.26 15.5699L316.93 0Z" fill="url(#paint2_linear_57_182)"/>
<path d="M829.773 83.7531C847.93 82.023 864.267 79.3025 876.006 76.2994C881.872 74.7986 886.608 73.2226 889.852 71.656C891.472 70.8738 892.744 70.0826 893.6 69.2877C894.447 68.5001 894.955 67.6419 894.869 66.7368C894.783 65.8316 894.122 65.0849 893.141 64.4716C892.15 63.8525 890.752 63.3158 889.013 62.8536C885.532 61.9279 880.583 61.2747 874.539 60.9088C862.445 60.1765 845.887 60.5904 827.731 62.3205C809.574 64.0506 793.236 66.771 781.498 69.7742C775.632 71.2749 770.896 72.8509 767.651 74.4176C766.031 75.1998 764.76 75.9909 763.904 76.7859C763.056 77.5735 762.548 78.4316 762.634 79.3368C762.72 80.2419 763.381 80.9886 764.363 81.602C765.353 82.221 766.752 82.7577 768.49 83.2199C771.972 84.1457 776.92 84.7988 782.964 85.1648C795.059 85.897 811.616 85.4831 829.773 83.7531Z" stroke="url(#paint3_linear_57_182)" stroke-width="0.842271"/>
<path d="M830.976 87.021C850.809 85.1313 868.629 81.885 881.41 78.1594C887.797 76.2975 892.947 74.31 896.463 72.3012C898.22 71.2976 899.592 70.2763 900.506 69.2451C901.419 68.2143 901.91 67.1318 901.804 66.0262C901.699 64.9206 901.013 63.9503 899.921 63.1105C898.829 62.2705 897.289 61.5266 895.374 60.8728C891.542 59.5643 886.109 58.5851 879.485 57.963C866.231 56.7182 848.118 56.8957 828.286 58.7854C808.453 60.6752 790.633 63.9215 777.852 67.6471C771.465 69.509 766.315 71.4965 762.798 73.5052C761.041 74.5089 759.67 75.5302 758.756 76.5614C757.843 77.5922 757.352 78.6747 757.457 79.7803C757.563 80.8858 758.249 81.8562 759.341 82.6959C760.433 83.536 761.972 84.2799 763.887 84.9337C767.72 86.2422 773.153 87.2213 779.776 87.8434C793.031 89.0883 811.144 88.9108 830.976 87.021Z" stroke="url(#paint4_linear_57_182)" stroke-width="0.842271"/>
<circle cx="828.929" cy="71.5206" r="32.5368" fill="url(#paint5_linear_57_182)" stroke="url(#paint6_linear_57_182)" stroke-width="2.32406"/>
<circle cx="820.797" cy="63.1059" r="15.1064" fill="url(#paint7_linear_57_182)"/>
<circle cx="820.797" cy="63.1058" r="12.7823" fill="white"/>
<circle cx="840.548" cy="85.4647" r="6.14217" fill="url(#paint8_linear_57_182)"/>
<circle cx="840.548" cy="85.4649" r="5.81014" fill="white"/>
<path d="M860.139 12.7808L861.642 26.7932L875.654 28.2963L861.642 29.7993L860.139 43.8118L858.636 29.7993L844.623 28.2963L858.636 26.7932L860.139 12.7808Z" fill="url(#paint9_linear_57_182)"/>
<defs>
<linearGradient id="paint0_linear_57_182" x1="151.178" y1="19.9097" x2="151.178" y2="245.72" gradientUnits="userSpaceOnUse">
<stop stop-color="#8488FF"/>
<stop offset="1" stop-color="#3A40FF"/>
</linearGradient>
<linearGradient id="paint1_linear_57_182" x1="609.691" y1="229.282" x2="609.691" y2="275.281" gradientUnits="userSpaceOnUse">
<stop stop-color="#8488FF"/>
<stop offset="1" stop-color="#3A40FF"/>
</linearGradient>
<linearGradient id="paint2_linear_57_182" x1="316.93" y1="0" x2="316.93" y2="34.4799" gradientUnits="userSpaceOnUse">
<stop stop-color="#8488FF"/>
<stop offset="1" stop-color="#3A40FF"/>
</linearGradient>
<linearGradient id="paint3_linear_57_182" x1="827.771" y1="62.7397" x2="829.733" y2="83.3338" gradientUnits="userSpaceOnUse">
<stop stop-color="#8488FF"/>
<stop offset="1" stop-color="#3A40FF"/>
</linearGradient>
<linearGradient id="paint4_linear_57_182" x1="828.326" y1="59.2047" x2="830.936" y2="86.6018" gradientUnits="userSpaceOnUse">
<stop stop-color="#8488FF"/>
<stop offset="1" stop-color="#3A40FF"/>
</linearGradient>
<linearGradient id="paint5_linear_57_182" x1="828.929" y1="37.8218" x2="828.929" y2="105.219" gradientUnits="userSpaceOnUse">
<stop stop-color="#8488FF"/>
<stop offset="1" stop-color="#3A40FF"/>
</linearGradient>
<linearGradient id="paint6_linear_57_182" x1="828.929" y1="37.8218" x2="828.929" y2="105.219" gradientUnits="userSpaceOnUse">
<stop stop-color="#8488FF"/>
<stop offset="1" stop-color="#3A40FF"/>
</linearGradient>
<linearGradient id="paint7_linear_57_182" x1="820.797" y1="47.9995" x2="820.797" y2="78.2122" gradientUnits="userSpaceOnUse">
<stop stop-color="#8488FF"/>
<stop offset="1" stop-color="#3A40FF"/>
</linearGradient>
<linearGradient id="paint8_linear_57_182" x1="840.548" y1="79.3225" x2="840.548" y2="91.6068" gradientUnits="userSpaceOnUse">
<stop stop-color="#8488FF"/>
<stop offset="1" stop-color="#3A40FF"/>
</linearGradient>
<linearGradient id="paint9_linear_57_182" x1="860.139" y1="12.7808" x2="860.139" y2="43.8118" gradientUnits="userSpaceOnUse">
<stop stop-color="#8488FF"/>
<stop offset="1" stop-color="#3A40FF"/>
</linearGradient>
</defs>
</svg>
